<svg width="26" height="26" viewBox="0 0 26 26" fill="none" xmlns="http://www.w3.org/2000/svg">
<path d="M17.875 0H8.125C3.63838 0 0 3.63838 0 8.125V17.875C0 22.3616 3.63838 26 8.125 26H17.875C22.3616 26 26 22.3616 26 17.875V8.125C26 3.63838 22.3616 0 17.875 0ZM23.5625 17.875C23.5625 21.0112 21.0112 23.5625 17.875 23.5625H8.125C4.98875 23.5625 2.4375 21.0112 2.4375 17.875V8.125C2.4375 4.98875 4.98875 2.4375 8.125 2.4375H17.875C21.0112 2.4375 23.5625 4.98875 23.5625 8.125V17.875Z" fill="#D1A954"/>
</svg>
g width="14" height="14" viewBox="0 0 14 14" fill="none" xmlns="http://www.w3.org/2000/svg">
<path d="M7 0.5C3.41037 0.5 0.5 3.41037 0.5 7C0.5 10.5896 3.41037 13.5 7 13.5C10.5896 13.5 13.5 10.5896 13.5 7C13.5 3.41037 10.5896 0.5 7 0.5ZM7 11.0625C4.76075 11.0625 2.9375 9.23925 2.9375 7C2.9375 4.75913 4.76075 2.9375 7 2.9375C9.23925 2.9375 11.0625 4.75913 11.0625 7C11.0625 9.23925 9.23925 11.0625 7 11.0625Z" fill="#D1A954"/>
</svg>
svg width="2" height="2" viewBox="0 0 2 2" fill="none" xmlns="http://www.w3.org/2000/svg">
<path d="M0.985387 1.87891C1.46373 1.87891 1.85151 1.49114 1.85151 1.01279C1.85151 0.534444 1.46373 0.146667 0.985387 0.146667C0.50704 0.146667 0.119263 0.534444 0.119263 1.01279C0.119263 1.49114 0.50704 1.87891 0.985387 1.87891Z" fill="#D1A954"/>
</svg>

